:SAMPLES-PER-SECOND 30
:FULLY-SPECIFIED
:DEGREES
110
root  -39.5351 39.8074 0.820507 -3.30294 2.77764 1.8798
RightUpLeg  -21.5497 -9.39702 -6.98817
RightLeg  6.92884 0.281119 1.0863
RightFoot  2.21962 -1.20583 10.2542
RightToes  -1.74624e-010 0 -3.6325e-017
Spine  5.79995 -2.02895 -3.23951
Spine1  7.67403 -2.75107 1.88414
HEad  -11.4602 5.42083 -4.30848
LeftShoulder1  8.92225 -12.5635 -48.4748
LeftArm  -1.39634 11.299 -29.304
LeftForeArm  22.5004 -25.4038 -4.21207
LeftHand  -0.244104 0.0205437 5.32207
RightShoulder  6.70745 10.1528 42.79
RightArm  8.42064 -23.4117 31.1484
RightForeArm  0.292032 15.17 7.58007
RightHand  -0.987832 2.13231 -15.3685
LeftUpLeg  9.09242 3.93968 -5.42856
LeftLeg  13.9943 3.69567 -1.34544
LeftFoot  -18.9349 0.587455 7.14468
LeftToes  1.71891e-010 -1.5102e-010 2.10556e-011
111
root  -39.7258 39.3931 2.62012 -3.41036 3.89483 2.37708
RightUpLeg  -20.693 -7.77001 -8.74907
RightLeg  -3.85336 0.777131 2.58539
RightFoot  0.451101 -1.26969 12.3205
RightToes  -1.74624e-010 0 -3.6325e-017
Spine  4.81936 -2.35995 -3.89789
Spine1  7.92089 -3.13125 2.40455
HEad  -11.9606 4.64259 -4.29095
LeftShoulder1  8.97072 -12.614 -48.5865
LeftArm  -1.9405 8.58428 -28.6909
LeftForeArm  24.3618 -28.1306 -4.74967
LeftHand  -0.244104 0.0205437 5.32207
RightShoulder  6.65694 10.0653 42.7387
RightArm  3.81516 -23.0501 30.4836
RightForeArm  5.34176 12.4022 8.01868
RightHand  -0.925716 2.00844 -14.6614
LeftUpLeg  12.4219 4.30725 -4.81373
LeftLeg  13.9257 2.07593 -1.88703
LeftFoot  -21.4588 0.698083 6.42705
LeftToes  1.71891e-010 -1.5102e-010 2.10556e-011
112
root  -39.9463 38.9078 4.43632 -3.55697 4.75515 2.68492
RightUpLeg  -21.8881 -8.38896 -8.88805
RightLeg  -4.49133 -0.585246 3.05996
RightFoot  -2.25157 -1.05764 12.9834
RightToes  -1.74624e-010 0 -3.6325e-017
Spine  4.19263 -2.52574 -4.24613
Spine1  7.90213 -3.37796 2.92718
HEad  -12.1465 4.08447 -4.43616
LeftShoulder1  9.00374 -12.67 -48.5971
LeftArm  -2.7096 6.37649 -28.2872
LeftForeArm  25.776 -30.2987 -5.17102
LeftHand  -0.244104 0.0205437 5.32207
RightShoulder  6.67115 10.129 42.6224
RightArm  -0.598095 -22.699 29.9661
RightForeArm  7.60907 9.83797 7.99921
RightHand  -0.918162 1.62874 -15.2951
LeftUpLeg  15.3741 5.12635 -3.92993
LeftLeg  14.8074 0.338365 -1.87184
LeftFoot  -23.6201 0.745046 5.58972
LeftToes  1.71891e-010 -1.5102e-010 2.10556e-011
113
root  -40.1586 38.5373 6.19382 -3.45232 5.47036 2.33773
RightUpLeg  -23.161 -8.20996 -7.99764
RightLeg  -0.17258 -5.21399 2.853
RightFoot  -0.781101 -0.977384 10.6037
RightToes  -1.74624e-010 0 -3.6325e-017
Spine  3.64866 -2.66313 -3.59001
Spine1  8.21046 -3.80034 3.74177
HEad  -12.1891 4.06632 -4.69201
LeftShoulder1  9.01398 -12.6939 -48.5804
LeftArm  -3.89683 4.96776 -27.949
LeftForeArm  26.7091 -32.2135 -5.57776
LeftHand  -0.244104 0.0205437 5.32207
RightShoulder  6.75699 10.2576 42.7769
RightArm  -3.44779 -22.1253 29.0585
RightForeArm  6.6362 8.06942 7.71124
RightHand  -0.953018 1.46152 -16.2316
LeftUpLeg  17.6224 5.46904 -2.75359
LeftLeg  15.9692 -0.916609 -1.06919
LeftFoot  -24.5429 0.622476 4.12955
LeftToes  1.71891e-010 -1.5102e-010 2.10556e-011
114
root  -40.3429 38.2133 8.03547 -3.58776 6.01066 1.35346
RightUpLeg  -25.0588 -8.63727 -5.81294
RightLeg  7.4378 -6.18481 1.25363
RightFoot  4.40593 -0.920466 6.93183
RightToes  -1.74624e-010 0 -3.6325e-017
Spine  3.01411 -3.07553 -1.5313
Spine1  8.67499 -4.21892 3.62895
HEad  -12.404 4.37135 -5.12912
LeftShoulder1  9.0638 -12.6902 -48.8614
LeftArm  -5.5513 4.62863 -27.2374
LeftForeArm  27.2777 -33.9593 -5.98015
LeftHand  -0.244104 0.0205437 5.32207
RightShoulder  6.78737 10.2163 43.1189
RightArm  -5.27676 -21.0858 28.0336
RightForeArm  5.3658 7.0899 7.34033
RightHand  -1.00245 1.7578 -16.3808
LeftUpLeg  19.1442 4.37411 -1.43818
LeftLeg  18.8872 -0.962348 -0.0880018
LeftFoot  -24.9147 0.183049 0.292843
LeftToes  1.71891e-010 -1.5102e-010 2.10556e-011
115
root  -40.4666 38.005 9.90477 -4.23885 5.58508 -0.57919
RightUpLeg  -26.5352 -9.83714 -2.01783
RightLeg  14.2709 -1.72611 0.14809
RightFoot  9.87783 -0.585415 3.46124
RightToes  -1.74624e-010 0 -3.6325e-017
Spine  2.92067 -3.41287 2.82597
Spine1  8.93109 -4.14325 2.25587
HEad  -13.0226 5.44901 -6.21347
LeftShoulder1  9.15534 -12.6965 -49.3367
LeftArm  -7.55476 5.52546 -26.487
LeftForeArm  27.8251 -35.2296 -6.27584
LeftHand  -0.244104 0.0205437 5.32207
RightShoulder  6.69605 10.0509 43.0527
RightArm  -6.71008 -19.8058 27.6668
RightForeArm  4.98094 6.87563 6.99559
RightHand  -1.02038 2.03883 -16.0564
LeftUpLeg  19.5121 3.09527 0.767848
LeftLeg  24.6428 0.374618 0.541436
LeftFoot  -22.5523 -0.350936 -5.2259
LeftToes  1.71891e-010 -1.5102e-010 2.10556e-011
116
root  -40.5972 37.9286 11.6968 -4.92836 4.49321 -2.92134
RightUpLeg  -27.1889 -9.47047 1.44628
RightLeg  20.1956 1.05563 0.101217
RightFoot  11.048 -0.0293224 0.48006
RightToes  -1.74624e-010 0 -3.6325e-017
Spine  3.48351 -3.49482 7.54556
Spine1  8.70473 -3.7129 1.07794
HEad  -13.9127 7.69946 -7.75807
LeftShoulder1  9.18286 -12.7038 -49.4623
LeftArm  -9.36592 7.33053 -26.6103
LeftForeArm  28.2917 -35.705 -6.37396
LeftHand  -0.244104 0.0205437 5.32207
RightShoulder  6.59383 10.0477 42.3664
RightArm  -7.28156 -18.5675 27.9148
RightForeArm  4.13826 7.63422 6.97821
RightHand  -1.00092 1.94137 -15.9601
LeftUpLeg  16.9709 3.91462 4.11482
LeftLeg  34.5038 1.83494 1.76101
LeftFoot  -13.8951 -0.127799 -8.10459
LeftToes  1.71891e-010 -1.5102e-010 2.10556e-011
117
root  -40.787 37.903 13.3241 -5.31476 4.25599 -4.78422
RightUpLeg  -26.8999 -8.35123 3.42124
RightLeg  25.3069 -0.144876 -0.314649
RightFoot  7.81225 0.296991 -1.43471
RightToes  -1.74624e-010 0 -3.6325e-017
Spine  4.21228 -3.58509 10.1171
Spine1  8.29832 -3.61727 1.51027
HEad  -13.4347 6.74715 -7.23826
LeftShoulder1  9.11899 -12.6918 -49.155
LeftArm  -10.0884 9.00234 -27.6063
LeftForeArm  28.1607 -35.3037 -6.27637
LeftHand  -0.244104 0.0205437 5.32207
RightShoulder  6.59047 10.2404 41.706
RightArm  -5.81908 -17.1787 27.8814
RightForeArm  1.65469 9.7254 7.33428
RightHand  -0.981534 1.75308 -16.0536
LeftUpLeg  10.8979 4.50287 6.77832
LeftLeg  46.9993 3.45462 4.401
LeftFoot  -0.449258 0.531974 -5.8662
LeftToes  1.71891e-010 -1.5102e-010 2.10556e-011
118
root  -40.9682 37.9497 14.7072 -5.65208 5.56993 -6.01822
RightUpLeg  -25.7058 -8.89973 4.58504
RightLeg  28.5805 -1.43898 -1.08062
RightFoot  3.6307 0.292085 -2.01896
RightToes  -1.74624e-010 0 -3.6325e-017
Spine  4.99936 -3.92572 11.1448
Spine1  8.25945 -3.94461 2.93518
HEad  -13.4891 6.43595 -6.54068
LeftShoulder1  9.09598 -12.7021 -48.9994
LeftArm  -9.18916 9.58309 -28.3985
LeftForeArm  27.465 -34.1111 -6.00875
LeftHand  -0.244104 0.0205437 5.32207
RightShoulder  6.64039 10.3491 41.6919
RightArm  -1.82859 -15.4136 27.2275
RightForeArm  -2.54822 13.3599 7.32364
RightHand  -0.998378 1.80705 -16.2044
LeftUpLeg  3.03448 3.49643 7.87872
LeftLeg  58.7122 3.98576 7.59145
LeftFoot  8.34235 0.326044 -2.05062
LeftToes  1.71891e-010 -1.5102e-010 2.10556e-011
119
root  -41.0908 38.2659 16.0421 -6.20425 7.04822 -6.33997
RightUpLeg  -23.0722 -10.6983 4.7282
RightLeg  29.2996 -1.05222 -0.889433
RightFoot  0.828436 0.243423 -2.22724
RightToes  -1.74624e-010 0 -3.6325e-017
Spine  5.65122 -3.99468 11.6502
Spine1  8.3983 -3.95634 3.45573
HEad  -13.5373 5.2519 -5.74152
LeftShoulder1  9.19688 -12.7792 -49.3089
LeftArm  -7.28351 9.33261 -28.4856
LeftForeArm  27.1695 -32.3999 -5.59756
LeftHand  -0.244104 0.0205437 5.32207
RightShoulder  6.63724 10.2679 41.9342
RightArm  2.63712 -13.6131 26.7324
RightForeArm  -7.14145 17.862 6.37048
RightHand  -1.05405 1.94354 -16.78
LeftUpLeg  -4.13794 2.71999 7.48063
LeftLeg  66.9535 3.75012 10.294
LeftFoot  8.55192 -0.142065 0.568304
LeftToes  1.71891e-010 -1.5102e-010 2.10556e-011
120
root  -41.1731 38.7481 17.3972 -6.67007 7.40023 -6.05853
RightUpLeg  -19.5173 -12.6452 4.31301
RightLeg  28.1575 0.389066 -0.0241789
RightFoot  -0.785832 0.214422 -2.37363
RightToes  -1.74624e-010 0 -3.6325e-017
Spine  5.92675 -3.45893 12.1645
Spine1  8.53059 -3.21847 2.78329
HEad  -13.2016 4.00615 -5.65768
LeftShoulder1  9.30124 -12.8564 -49.6333
LeftArm  -5.67301 9.44557 -28.5668
LeftForeArm  27.7504 -30.5633 -5.12399
LeftHand  -0.244104 0.0205437 5.32207
RightShoulder  6.55946 10.2019 41.6209
RightArm  4.39076 -12.2118 27.0994
RightForeArm  -9.52186 21.9258 5.51424
RightHand  -1.10604 1.88589 -17.7268
LeftUpLeg  -9.98542 3.73942 6.51174
LeftLeg  70.6586 3.25675 11.1142
LeftFoot  5.01636 -0.238966 1.41361
LeftToes  1.71891e-010 -1.5102e-010 2.10556e-011
